<svg xmlns="http://www.w3.org/2000/svg" width="64" height="64" fill-rule="evenodd" stroke-linejoin="round" stroke-miterlimit="2" clip-rule="evenodd" id="statistic"><path fill="#f3f5f0" d="M58,13C58,10.791 56.209,9 54,9L10,9C7.791,9 6,10.791 6,13L6,43C6,45.209 7.791,47 10,47L54,47C56.209,47 58,45.209 58,43L58,13Z"></path><path fill="#734fd4" d="M58 41L6 41 6 43C6 44.061 6.421 45.078 7.172 45.828 7.922 46.579 8.939 47 10 47 19.686 47 44.314 47 54 47 55.061 47 56.078 46.579 56.828 45.828 57.579 45.078 58 44.061 58 43 58 41.898 58 41 58 41zM39 47L25 47 22 55 42 55 39 47z"></path><rect width="6" height="8" x="16" y="25" fill="#ffbc15"></rect><rect width="6" height="12" x="28" y="21" fill="#ffbc15"></rect><rect width="6" height="17" x="40" y="16" fill="#ffbc15"></rect><path fill="#3b2e5e" d="M59,13C59,10.239 56.761,8 54,8L10,8C7.239,8 5,10.239 5,13L5,43C5,45.761 7.239,48 10,48L54,48C56.761,48 59,45.761 59,43L59,13ZM57,13L57,43C57,44.657 55.657,46 54,46L10,46C8.343,46 7,44.657 7,43L7,13C7,11.343 8.343,10 10,10L54,10C55.657,10 57,11.343 57,13Z"></path><path fill="#3b2e5e" d="M58 40L6 40C5.448 40 5 40.448 5 41 5 41.552 5.448 42 6 42L58 42C58.552 42 59 41.552 59 41 59 40.448 58.552 40 58 40zM39.936 46.649C39.79 46.259 39.417 46 39 46L25 46C24.583 46 24.21 46.259 24.064 46.649L21.064 54.649C20.949 54.956 20.991 55.3 21.178 55.57 21.365 55.839 21.672 56 22 56L42 56C42.328 56 42.635 55.839 42.822 55.57 43.009 55.3 43.051 54.956 42.936 54.649L39.936 46.649zM25.693 48L23.443 54 40.557 54 38.307 48 25.693 48z"></path><path fill="#3b2e5e" d="M19 56L45 56C45.552 56 46 55.552 46 55 46 54.448 45.552 54 45 54L19 54C18.448 54 18 54.448 18 55 18 55.552 18.448 56 19 56zM23 25C23 24.448 22.552 24 22 24L16 24C15.448 24 15 24.448 15 25L15 33C15 33.552 15.448 34 16 34L22 34C22.552 34 23 33.552 23 33L23 25zM17 26L17 32 21 32 21 26 17 26zM35 21C35 20.448 34.552 20 34 20L28 20C27.448 20 27 20.448 27 21L27 33C27 33.552 27.448 34 28 34L34 34C34.552 34 35 33.552 35 33L35 21zM29 22L29 32 33 32 33 22 29 22zM47 16C47 15.448 46.552 15 46 15L40 15C39.448 15 39 15.448 39 16L39 33C39 33.552 39.448 34 40 34L46 34C46.552 34 47 33.552 47 33L47 16zM41 17L41 32 45 32 45 17 41 17z"></path></svg>