<svg xmlns="http://www.w3.org/2000/svg" viewBox="0 0 96 96" id="belt"><path fill="#37375c" d="M62.29,11.93,28.74,13.2,3.21,69.09l18.3,24.63,58.34-5.41L91.25,67ZM76.67,83.51l-52.79,4.9L9.07,68.47l23-50.31,27.24-1L85.51,67Z"></path><path fill="#4b507f" d="M18.11 36.48L12 49.79a2.53 2.53 0 104.61 2.1l6.08-13.3a2.53 2.53 0 10-4.61-2.11zM72.89 35a2.53 2.53 0 00-2.25 3.71L78.89 54.4A2.54 2.54 0 0083.38 52L75.13 36.35A2.53 2.53 0 0072.89 35zM60.11 85.05L41.05 86.82a2.53 2.53 0 10.47 5L60.58 90.1a2.54 2.54 0 00-.47-5z"></path><circle cx="20.71" cy="75.29" r="19.71" fill="#cad2e4"></circle><circle cx="45.82" cy="20.71" r="19.71" fill="#cad2e4"></circle><circle cx="45.82" cy="20.71" r="15.76" fill="#9da5d0"></circle><circle cx="45.82" cy="20.71" r="2.18" fill="#7a82ad"></circle><path fill="#555f84" d="M58.56,23.2v-5H55.3a9.6,9.6,0,0,0-1-2.43l2.3-2.3L53.06,9.93l-2.3,2.3a9.89,9.89,0,0,0-2.44-1V8h-5v3.24a9.89,9.89,0,0,0-2.44,1l-2.3-2.3-3.53,3.54,2.3,2.3a9.6,9.6,0,0,0-1,2.43H33.08v5h3.26a9.38,9.38,0,0,0,1,2.44l-2.3,2.3,3.53,3.55,2.3-2.31a10.31,10.31,0,0,0,2.44,1v3.24h5V30.2a10.31,10.31,0,0,0,2.44-1l2.3,2.31,3.53-3.55-2.3-2.3a9.38,9.38,0,0,0,1-2.44ZM45.82,25.34a4.63,4.63,0,1,1,4.63-4.64A4.64,4.64,0,0,1,45.82,25.34Z"></path><circle cx="20.71" cy="75.29" r="14.13" fill="#464675"></circle><path fill="#e3ebf3" d="M10.28,65.78a14.1,14.1,0,0,1,20.85,0,2.75,2.75,0,0,0,2,.89,2.79,2.79,0,0,0,2-4.7,19.62,19.62,0,0,0-29,0,2.79,2.79,0,0,0,2,4.7A2.75,2.75,0,0,0,10.28,65.78Z"></path><path fill="#9da5d0" d="M32,83.71a14.07,14.07,0,0,1-22.64,0A2.79,2.79,0,1,0,4.91,87,19.65,19.65,0,0,0,36.5,87,2.79,2.79,0,1,0,32,83.71Z"></path><path fill="#898cbc" d="M25,88.74A14,14,0,0,1,16,88.59a2.79,2.79,0,0,0-2,5.21A19.64,19.64,0,0,0,26.81,94,2.79,2.79,0,0,0,25,88.74Z"></path><circle cx="20.71" cy="75.29" r="10.29" fill="#555f84"></circle><circle cx="20.71" cy="75.29" r="5.71" fill="#464675"></circle><circle cx="80.87" cy="75.29" r="14.13" fill="#f5b44f"></circle><circle cx="80.87" cy="75.29" r="10.64" fill="#f57d4a"></circle><circle cx="80.87" cy="75.29" r="7.85" fill="#cad2e4"></circle><circle cx="80.87" cy="75.29" r="5.39" fill="#9daae4"></circle><circle cx="80.87" cy="75.29" r="3.66" fill="#555f84"></circle><circle cx="20.71" cy="75.29" r="3.66" fill="#cad2e4"></circle></svg>