<svg xmlns="http://www.w3.org/2000/svg" enable-background="new 0 0 512 512" viewBox="0 0 512 512" id="teamwork"><path fill="#8ac9fe" fill-rule="evenodd" d="M83,91.757c34.864,0,64.36,22.987,74.159,54.63c1.722,5.56,0.786,11.091-2.667,15.776
				c-3.453,4.685-8.46,7.214-14.28,7.214H25.789c-5.82,0-10.827-2.53-14.28-7.214c-3.453-4.684-4.389-10.216-2.667-15.776
				C18.64,114.743,48.137,91.757,83,91.757z" clip-rule="evenodd"></path><path fill="#60b7ff" fill-rule="evenodd" d="M83,91.757c34.864,0,64.359,22.987,74.158,54.63c1.722,5.559,0.786,11.091-2.667,15.776
				c-3.453,4.685-8.46,7.214-14.28,7.214h-20.965c5.82,0,10.827-2.529,14.28-7.214c3.453-4.684,4.389-10.216,2.667-15.776
				c-8.799-28.416-33.484-49.848-63.676-53.924C75.946,92,79.445,91.757,83,91.757z" clip-rule="evenodd"></path><circle cx="83.001" cy="42.03" r="39.244" fill="#f6dccd" fill-rule="evenodd" clip-rule="evenodd" transform="rotate(-10.517 82.984 42.017)"></circle><path fill="#f1cbbc" fill-rule="evenodd" d="M83.001,2.786c21.674,0,39.244,17.57,39.244,39.244c0,21.674-17.57,39.244-39.244,39.244
				c-1.778,0-3.527-0.12-5.242-0.349c19.196-2.562,34.003-18.999,34.003-38.895c0-19.896-14.807-36.333-34.003-38.895
				C79.474,2.906,81.223,2.786,83.001,2.786z" clip-rule="evenodd"></path><path fill="#8ac9fe" fill-rule="evenodd" d="M429,91.757c34.864,0,64.36,22.987,74.159,54.63c1.722,5.56,0.786,11.091-2.667,15.776
				c-3.453,4.685-8.46,7.214-14.28,7.214H371.789c-5.82,0-10.827-2.53-14.28-7.214c-3.453-4.684-4.389-10.216-2.667-15.776
				C364.64,114.743,394.137,91.757,429,91.757z" clip-rule="evenodd"></path><path fill="#60b7ff" fill-rule="evenodd" d="M429,91.757c34.864,0,64.359,22.987,74.158,54.63c1.722,5.559,0.786,11.091-2.667,15.776
				c-3.453,4.685-8.46,7.214-14.28,7.214h-20.965c5.82,0,10.827-2.529,14.28-7.214c3.453-4.684,4.389-10.216,2.667-15.776
				c-8.799-28.416-33.484-49.848-63.676-53.924C421.946,92,425.445,91.757,429,91.757z" clip-rule="evenodd"></path><circle cx="429.001" cy="42.03" r="39.244" fill="#f6dccd" fill-rule="evenodd" clip-rule="evenodd" transform="rotate(-10.517 428.906 42)"></circle><path fill="#f1cbbc" fill-rule="evenodd" d="M429,2.786c21.674,0,39.244,17.57,39.244,39.244c0,21.674-17.57,39.244-39.244,39.244
				c-1.778,0-3.527-0.12-5.242-0.349c19.196-2.562,34.003-18.999,34.003-38.895c0-19.896-14.807-36.333-34.003-38.895
				C425.474,2.906,427.223,2.786,429,2.786z" clip-rule="evenodd"></path><g><path fill="#8ac9fe" fill-rule="evenodd" d="M83,431.595c34.864,0,64.36,22.986,74.159,54.63c1.722,5.56,0.786,11.091-2.667,15.776
				c-3.453,4.684-8.46,7.214-14.28,7.214H25.789c-5.82,0-10.827-2.53-14.28-7.214c-3.453-4.685-4.389-10.216-2.667-15.776
				C18.64,454.581,48.137,431.595,83,431.595z" clip-rule="evenodd"></path><path fill="#60b7ff" fill-rule="evenodd" d="M83,431.595c34.864,0,64.359,22.986,74.158,54.63c1.722,5.559,0.786,11.091-2.667,15.776
				c-3.453,4.684-8.46,7.214-14.28,7.214h-20.965c5.82,0,10.827-2.529,14.28-7.214c3.453-4.685,4.389-10.216,2.667-15.776
				c-8.799-28.416-33.484-49.847-63.676-53.924C75.946,431.838,79.445,431.595,83,431.595z" clip-rule="evenodd"></path><circle cx="83.001" cy="381.868" r="39.244" fill="#f6dccd" fill-rule="evenodd" clip-rule="evenodd" transform="rotate(-14.525 83.02 381.93)"></circle><path fill="#f1cbbc" fill-rule="evenodd" d="M83.001,342.624c21.674,0,39.244,17.57,39.244,39.244c0,21.674-17.57,39.245-39.244,39.245
				c-1.778,0-3.527-0.12-5.242-0.349c19.196-2.562,34.003-18.999,34.003-38.895c0-19.896-14.807-36.333-34.003-38.895
				C79.474,342.744,81.223,342.624,83.001,342.624z" clip-rule="evenodd"></path></g><g><path fill="#8ac9fe" fill-rule="evenodd" d="M429,431.595c34.864,0,64.36,22.986,74.159,54.63c1.722,5.56,0.786,11.091-2.667,15.776
				c-3.453,4.684-8.46,7.214-14.28,7.214H371.789c-5.82,0-10.827-2.53-14.28-7.214c-3.453-4.685-4.389-10.216-2.667-15.776
				C364.64,454.581,394.137,431.595,429,431.595z" clip-rule="evenodd"></path><path fill="#60b7ff" fill-rule="evenodd" d="M429,431.595c34.864,0,64.359,22.986,74.158,54.63c1.722,5.559,0.786,11.091-2.667,15.776
				c-3.453,4.684-8.46,7.214-14.28,7.214h-20.965c5.82,0,10.827-2.529,14.28-7.214c3.453-4.685,4.389-10.216,2.667-15.776
				c-8.799-28.416-33.484-49.847-63.676-53.924C421.946,431.838,425.445,431.595,429,431.595z" clip-rule="evenodd"></path><circle cx="429.001" cy="381.868" r="39.244" fill="#f6dccd" fill-rule="evenodd" clip-rule="evenodd" transform="rotate(-14.525 429.078 381.924)"></circle><path fill="#f1cbbc" fill-rule="evenodd" d="M429,342.624c21.674,0,39.244,17.57,39.244,39.244c0,21.674-17.57,39.245-39.244,39.245
				c-1.778,0-3.527-0.12-5.242-0.349c19.196-2.562,34.003-18.999,34.003-38.895c0-19.896-14.807-36.333-34.003-38.895
				C425.474,342.744,427.223,342.624,429,342.624z" clip-rule="evenodd"></path></g><path fill-rule="evenodd" d="M72.421,318.279v-99.635L51.88,243.658c-2.802,3.416-7.841,3.911-11.261,1.104
		c-3.411-2.803-3.906-7.846-1.109-11.257l34.732-42.29c1.51-1.849,3.779-2.925,6.176-2.925c2.392,0,4.661,1.076,6.18,2.925
		l34.723,42.29c2.807,3.411,2.307,8.454-1.099,11.257c-1.491,1.222-3.293,1.816-5.081,1.816c-2.312,0-4.6-0.995-6.18-2.92
		l-20.541-25.014v99.635c0,4.416-3.581,7.997-8.001,7.997C76.002,326.276,72.421,322.695,72.421,318.279L72.421,318.279z
		 M316.279,431.582c0,4.416-3.581,7.997-8.001,7.997h-99.635l25.019,20.541c3.406,2.802,3.911,7.841,1.099,11.257
		c-1.581,1.93-3.869,2.925-6.18,2.925c-1.793,0-3.59-0.594-5.081-1.816l-42.29-34.723c-1.85-1.519-2.921-3.789-2.921-6.18
		c0-2.397,1.071-4.666,2.921-6.185l42.29-34.723c3.421-2.802,8.459-2.307,11.262,1.109c2.812,3.416,2.307,8.454-1.099,11.257
		l-25.019,20.541h99.635C312.698,423.581,316.279,427.161,316.279,431.582L316.279,431.582z M439.579,193.721v99.635l20.541-25.014
		c2.802-3.416,7.841-3.906,11.261-1.104c3.411,2.802,3.906,7.841,1.099,11.257l-34.723,42.29c-1.519,1.849-3.788,2.92-6.176,2.92
		c-2.392,0-4.661-1.071-6.185-2.92l-34.718-42.29c-2.807-3.415-2.307-8.454,1.099-11.257c3.42-2.807,8.464-2.312,11.261,1.104
		l20.541,25.018v-99.639c0-4.421,3.576-8.002,8.001-8.002C435.998,185.719,439.579,189.3,439.579,193.721L439.579,193.721z
		 M333.711,80.418c0,2.397-1.071,4.666-2.93,6.185l-42.281,34.718c-1.491,1.222-3.288,1.821-5.081,1.821c-2.312,0-4.6-1-6.18-2.925
		c-2.812-3.416-2.312-8.459,1.099-11.261l25.019-20.536h-99.635c-4.42,0-8.001-3.581-8.001-8.001c0-4.416,3.581-8.001,8.001-8.001
		h99.635L278.339,51.88c-3.411-2.802-3.911-7.846-1.099-11.257c2.798-3.415,7.841-3.911,11.261-1.109l42.281,34.723
		C332.641,75.757,333.711,78.026,333.711,80.418L333.711,80.418z M148.109,152.218c-1.849,2.505-4.718,3.944-7.879,3.944H25.767
		c-3.156,0-6.03-1.439-7.879-3.944c-1.84-2.505-2.368-5.671-1.43-8.69c9.082-29.312,35.813-49.008,66.53-49.013h0.01h0.009
		c30.722,0.005,57.453,19.701,66.53,49.013C150.477,146.547,149.949,149.713,148.109,152.218L148.109,152.218z M51.739,47.257
		c0-17.234,14.021-31.255,31.26-31.255c17.243,0,31.26,14.021,31.26,31.255c0,17.234-14.017,31.251-31.251,31.26h-0.009h-0.01
		C65.76,78.507,51.739,64.491,51.739,47.257L51.739,47.257z M134.29,95.567c-6.643-4.968-13.842-8.888-21.428-11.714
		c10.606-8.671,17.399-21.853,17.399-36.596c0-26.056-21.202-47.258-47.263-47.258c-26.061,0-47.258,21.202-47.258,47.258
		c0,14.743,6.789,27.925,17.399,36.596c-7.591,2.826-14.79,6.746-21.428,11.714c-14.403,10.78-25.24,26.132-30.543,43.229
		c-2.449,7.926-1.047,16.277,3.85,22.914c4.892,6.642,12.45,10.45,20.749,10.45H140.23c8.289,0,15.861-3.807,20.749-10.45
		c4.902-6.638,6.303-14.988,3.85-22.914C159.531,121.699,148.689,106.347,134.29,95.567L134.29,95.567z M362.457,143.528
		c9.073-29.312,35.813-49.008,66.53-49.013h0.014h0.01c30.717,0.005,57.448,19.701,66.53,49.013c0.939,3.019,0.41,6.185-1.439,8.69
		c-1.845,2.505-4.713,3.944-7.874,3.944H371.77c-3.161,0-6.029-1.439-7.879-3.944C362.051,149.713,361.518,146.547,362.457,143.528
		L362.457,143.528z M397.741,47.257c0-17.234,14.016-31.255,31.26-31.255c17.239,0,31.255,14.021,31.255,31.255
		c0,17.234-14.016,31.251-31.246,31.26h-0.01h-0.014C411.758,78.507,397.741,64.491,397.741,47.257L397.741,47.257z M371.77,172.16
		h114.458c8.294,0,15.861-3.807,20.754-10.45c4.897-6.638,6.298-14.988,3.85-22.914c-5.303-17.097-16.14-32.449-30.543-43.229
		c-6.638-4.968-13.837-8.888-21.428-11.714c10.61-8.671,17.399-21.853,17.399-36.596c0-26.056-21.197-47.258-47.258-47.258
		c-26.061,0-47.263,21.202-47.263,47.258c0,14.743,6.794,27.925,17.399,36.596c-7.586,2.826-14.785,6.746-21.428,11.714
		c-14.399,10.78-25.24,26.132-30.538,43.229c-2.453,7.926-1.052,16.277,3.836,22.914C355.908,168.353,363.471,172.16,371.77,172.16
		L371.77,172.16z M148.109,492.055c-1.849,2.51-4.718,3.944-7.879,3.944H25.767c-3.156,0-6.03-1.434-7.879-3.944
		c-1.84-2.505-2.368-5.671-1.43-8.685c9.082-29.316,35.813-49.013,66.53-49.013h0.01h0.009c30.722,0,57.453,19.697,66.53,49.013
		C150.477,486.384,149.949,489.549,148.109,492.055L148.109,492.055z M51.739,387.093c0-17.234,14.021-31.255,31.26-31.255
		c17.243,0,31.26,14.021,31.26,31.255c0,17.234-14.017,31.255-31.251,31.26h-0.009h-0.01
		C65.76,418.349,51.739,404.327,51.739,387.093L51.739,387.093z M134.29,435.403c-6.643-4.968-13.842-8.883-21.428-11.714
		c10.606-8.671,17.399-21.853,17.399-36.596c0-26.056-21.202-47.254-47.263-47.254c-26.061,0-47.258,21.197-47.258,47.254
		c0,14.743,6.789,27.925,17.399,36.596c-7.591,2.831-14.79,6.747-21.428,11.714c-14.403,10.78-25.24,26.132-30.543,43.234
		c-2.449,7.921-1.047,16.271,3.85,22.914c4.892,6.638,12.45,10.45,20.749,10.45H140.23c8.289,0,15.861-3.812,20.749-10.45
		c4.902-6.643,6.303-14.993,3.85-22.914C159.531,461.535,148.689,446.183,134.29,435.403L134.29,435.403z M494.102,492.055
		c-1.845,2.51-4.713,3.944-7.874,3.944H371.77c-3.161,0-6.029-1.434-7.879-3.944c-1.84-2.505-2.373-5.671-1.434-8.685
		c9.073-29.316,35.813-49.013,66.53-49.013h0.014h0.01c30.717,0,57.448,19.697,66.53,49.013
		C496.48,486.384,495.952,489.549,494.102,492.055L494.102,492.055z M397.741,387.093c0-17.234,14.016-31.255,31.26-31.255
		c17.239,0,31.255,14.021,31.255,31.255c0,17.234-14.016,31.255-31.246,31.26h-0.01h-0.014
		C411.758,418.349,397.741,404.327,397.741,387.093L397.741,387.093z M480.288,435.403c-6.638-4.968-13.837-8.883-21.428-11.714
		c10.61-8.671,17.399-21.853,17.399-36.596c0-26.056-21.197-47.254-47.258-47.254c-26.061,0-47.263,21.197-47.263,47.254
		c0,14.743,6.794,27.925,17.399,36.596c-7.586,2.831-14.785,6.747-21.428,11.714c-14.399,10.78-25.24,26.132-30.538,43.234
		c-2.453,7.921-1.052,16.271,3.836,22.914c4.902,6.638,12.464,10.45,20.763,10.45h114.458c8.294,0,15.861-3.812,20.754-10.45
		c4.897-6.643,6.298-14.993,3.85-22.914C505.529,461.535,494.692,446.183,480.288,435.403z" clip-rule="evenodd"></path></svg>