<svg xmlns="http://www.w3.org/2000/svg" viewBox="0 0 64 64" id="product-reliability"><circle cx="44" cy="20" r="18" fill="#ffeaab"></circle><path fill="#7499cc" d="M30.696 28.715 29 27l-1.696 1.715a14.27 14.27 0 0 1-4.3 2.986L19 33.5l.375 3.605c.667 6.409 4.121 12.185 9.424 15.76L29 53l.2-.135c5.303-3.575 8.757-9.351 9.424-15.76L39 33.5l-4.005-1.8a14.293 14.293 0 0 1-4.299-2.985z"></path><path fill="#adc4e6" d="M52 28H40a2 2 0 0 1-2-2V10h12a2 2 0 0 1 2 2v16z"></path><path fill="#5a6d80" d="M50 10H38v4h14v-2a2 2 0 0 0-2-2z"></path><path fill="#ff8088" d="m45 18 .927 1.975 2.073.317-1.5 1.537.354 2.171L45 22.975 43.146 24l.354-2.171-1.5-1.537 2.073-.317z"></path><path fill="#83ade6" d="M16 51H6a4 4 0 0 0-4 4v8h18v-8a4 4 0 0 0-4-4z"></path><circle cx="11" cy="46" r="5" fill="#83ade6"></circle><path fill="#7499cc" d="M11 51c1.2 0 2.287-.44 3.149-1.145A5.008 5.008 0 0 1 13 50a5 5 0 0 1-5-5c0-1.561.73-2.938 1.851-3.855C7.646 41.666 6 43.636 6 46a5 5 0 0 0 5 5z"></path><path d="M3.323 54.736c0-1.654 1.346-3 3-3h10c1.654 0 3 1.346 3 3v8h2v-8c0-2.757-2.243-5-5-5h-.54a5.97 5.97 0 0 0 1.54-4c0-3.309-2.691-6-6-6s-6 2.691-6 6a5.97 5.97 0 0 0 1.54 4h-.54c-2.757 0-5 2.243-5 5v8h2v-8zm8-13c2.206 0 4 1.794 4 4s-1.794 4-4 4-4-1.794-4-4 1.794-4 4-4z"></path><path d="M5.323 54.736h2v8h-2zM15.323 54.736h2v8h-2zM18.913 32.324a1 1 0 0 0-.585 1.016l.375 3.605c.7 6.724 4.293 12.732 9.86 16.485l.2.135a.999.999 0 0 0 1.118 0l.201-.135c5.566-3.753 9.16-9.762 9.86-16.485l.375-3.605a1 1 0 0 0-.585-1.016l-4.005-1.8a13.253 13.253 0 0 1-3.998-2.776l-1.696-1.715c-.375-.381-1.047-.381-1.422 0l-1.696 1.715a13.245 13.245 0 0 1-3.999 2.776l-4.003 1.8zm9.425-3.17.985-.996.985.996a15.206 15.206 0 0 0 4.601 3.194l3.345 1.503-.301 2.887c-.623 5.988-3.761 11.353-8.63 14.787-4.87-3.435-8.007-8.799-8.63-14.787l-.301-2.887 3.345-1.503a15.236 15.236 0 0 0 4.601-3.194z"></path><path d="m28.323 43.736.039-.001a1 1 0 0 0 .721-.349l6-7-1.519-1.301-5.297 6.18-2.236-2.236-1.414 1.414 3 3a1 1 0 0 0 .706.293zm16-7c-.63 0-1.265-.035-1.887-.104l-.219 1.988c.695.076 1.403.115 2.106.115h.018l-.018-1.999zm2.144 1.882c.704-.08 1.41-.2 2.099-.357l-.445-1.949a16.73 16.73 0 0 1-1.878.318l.224 1.988zm3.483-2.835.664 1.887c.667-.235 1.329-.51 1.965-.817l-.869-1.801a17.12 17.12 0 0 1-1.76.731zm6.226-1.197-1.248-1.562a17.2 17.2 0 0 1-1.554 1.106l1.069 1.689a18.87 18.87 0 0 0 1.733-1.233zm.171-2.834 1.415 1.414a19.2 19.2 0 0 0 1.419-1.588l-1.563-1.248c-.394.495-.822.973-1.271 1.422zm5.1-3.774-1.802-.869a17.408 17.408 0 0 1-.923 1.67l1.694 1.062c.379-.604.725-1.231 1.031-1.863zm1.404-4.018-1.95-.443a17.333 17.333 0 0 1-.526 1.832l1.888.66c.232-.669.431-1.357.588-2.049zm-37.407-2.061c.081.705.201 1.411.359 2.099l1.949-.447a17.125 17.125 0 0 1-.321-1.878l-1.987.226zm35.774-.259 1.987.221a19.25 19.25 0 0 0 .118-2.125v-.072l-2 .072c0 .637-.036 1.277-.105 1.904zm-35.895-1.904v.035l2-.035c0-.623.034-1.252.102-1.87l-1.988-.217a19.12 19.12 0 0 0-.114 2.087zm37.511-4.299-1.948.451c.142.615.251 1.246.325 1.877l1.986-.23a19.002 19.002 0 0 0-.363-2.098zm-37.048.11 1.951.439c.139-.618.315-1.235.523-1.833l-1.89-.656c-.232.67-.428 1.359-.584 2.05zm33.83-3.244c.278.57.525 1.162.736 1.758l1.886-.668a18.934 18.934 0 0 0-.824-1.965l-1.798.875zm-32.434-.774 1.804.863a17.4 17.4 0 0 1 .919-1.67l-1.695-1.06a18.728 18.728 0 0 0-1.028 1.867zm30.396-2.438c.396.492.769 1.014 1.109 1.55l1.688-1.072a19.15 19.15 0 0 0-1.239-1.731l-1.558 1.253zM32.274 7.743l-1.419-1.41c-.5.504-.976 1.039-1.415 1.591l1.566 1.244c.393-.495.819-.974 1.268-1.425zm25.439-1.487c-.5-.498-1.036-.974-1.592-1.415l-1.243 1.566c.498.396.977.821 1.425 1.267l1.41-1.418zm-24.022.214a16.94 16.94 0 0 1 1.552-1.108l-1.071-1.689c-.597.379-1.18.795-1.731 1.237l1.25 1.56zm18.823-3.882-.864 1.803c.57.273 1.132.583 1.671.919l1.06-1.695a19.154 19.154 0 0 0-1.867-1.027zM36.906 4.434a17.302 17.302 0 0 1 1.757-.735l-.667-1.885c-.67.236-1.331.513-1.965.821l.875 1.799zm13.636-2.656a19.098 19.098 0 0 0-2.049-.582l-.438 1.951a16.96 16.96 0 0 1 1.833.521l.654-1.89zM42.141.859c-.708.082-1.413.203-2.098.36l.448 1.949c.613-.141 1.246-.25 1.879-.323L42.141.859zM46.39.847a19.347 19.347 0 0 0-2.068-.111h-.054l.054 2c.616 0 1.239.033 1.854.1L46.39.847zm6.933 26.889v-16c0-1.654-1.346-3-3-3h-12a1 1 0 0 0-1 1v16c0 1.654 1.346 3 3 3h12a1 1 0 0 0 1-1zm-2-15h-5v2h5v12h-11c-.551 0-1-.448-1-1v-11h5v-2h-5v-2h11c.551 0 1 .448 1 1v1z"></path><path d="M45.323 16.736a1 1 0 0 0-.905.575l-.701 1.491-1.545.237a.999.999 0 0 0-.565 1.687l1.147 1.176-.272 1.673a1 1 0 0 0 1.471 1.037l1.37-.758 1.37.758a.995.995 0 0 0 1.06-.058 1 1 0 0 0 .411-.979l-.272-1.673 1.147-1.176a1 1 0 0 0-.565-1.687l-1.545-.237-.701-1.491a.999.999 0 0 0-.905-.575zm.784 4.131a.999.999 0 0 0-.271.859l.022.138-.052-.028a1 1 0 0 0-.968 0l-.052.028.022-.138a.998.998 0 0 0-.271-.859l-.141-.145.149-.023a1 1 0 0 0 .754-.563l.022-.047.022.047a.996.996 0 0 0 .754.563l.149.023-.139.145z"></path></svg>